<?xml version="1.0" encoding="UTF-8"?>
<svg width="120px" height="120px" viewBox="0 0 120 120" version="1.1" xmlns="http://www.w3.org/2000/svg" xmlns:xlink="http://www.w3.org/1999/xlink">
    <!-- Generator: Sketch 51.3 (57544) - http://www.bohemiancoding.com/sketch -->
    <title>location</title>
    <desc>Created with Sketch.</desc>
    <defs></defs>
    <g id="Page-1" stroke="none" stroke-width="1" fill="none" fill-rule="evenodd">
        <g id="location" fill="#FF5757" fill-rule="nonzero">
            <path d="M74.777,33.021 C74.7758955,24.8601487 68.1595182,18.2452637 59.9986668,18.2460001 C51.8378155,18.2467364 45.222632,24.8628152 45.2230002,33.0236666 C45.2233683,41.184518 51.8391486,47.7999999 60,47.8 C68.1577798,47.7900798 74.7681838,41.1787811 74.777,33.021 Z M48.723,33.021 C48.7241045,26.7931453 53.7734784,21.7452638 60.0013331,21.7460001 C66.2291878,21.7467364 71.2773679,26.7958118 71.2769998,33.0236665 C71.2766317,39.2515213 66.2278548,44.2999999 60,44.3 C53.7740748,44.292834 48.7290619,39.2469264 48.723,33.021 Z" id="Shape"></path>
            <path d="M119.328,117.069 L105.062,79.669 C104.802979,78.9911294 104.152672,78.5432726 103.427,78.543 L76.427,78.543 C76.592,78.274 76.756,78.013 76.921,77.743 C87.31,60.543 92.538,45.497 92.463,33.029 C92.4660373,15.0996281 77.9338719,0.56253805 60.0045,0.559500484 C42.0751281,0.556462918 27.5380378,15.0886281 27.535,33.018 C27.46,45.497 32.688,60.545 43.077,77.743 C43.242,78.016 43.406,78.277 43.571,78.543 L16.571,78.543 C15.8453278,78.5432726 15.1950206,78.9911294 14.936,79.669 L0.672,117.069 C0.465669236,117.606928 0.537659645,118.211982 0.864450659,118.686478 C1.19124167,119.160975 1.73085904,119.443969 2.307,119.443 L117.693,119.443 C118.269141,119.443969 118.808758,119.160975 119.135549,118.686478 C119.46234,118.211982 119.534331,117.606928 119.328,117.069 Z M31.036,33.021 C31.0377862,22.6731594 36.559944,13.1123132 45.52233,7.93993985 C54.484716,2.76756648 65.5257306,2.76947247 74.4863303,7.94493985 C83.4469299,13.1204072 88.9657865,22.6831594 88.964,33.031 C89.114,57.889 65.874,88.548 60,95.9 C54.126,88.551 30.885,57.9 31.036,33.021 Z M58.667,99.8 C58.9994978,100.190899 59.4868173,100.416152 60,100.416152 C60.5131827,100.416152 61.0005022,100.190899 61.333,99.8 C65.9793678,94.1398412 70.2868892,88.20982 74.233,82.041 L102.22,82.041 L104.46,87.916 L49.769,107.367 L30.275,82.038 L45.765,82.038 C49.711659,88.2078987 54.0198507,94.138925 58.667,99.8 Z M49.708,111.1 L49.718,111.1 L82.345,99.5 L95,115.943 L36.1,115.943 L49.708,111.1 Z M17.778,82.038 L25.858,82.038 L46.3,108.6 L25.657,115.942 L4.847,115.942 L17.778,82.038 Z M99.421,115.943 L85.812,98.261 L105.712,91.184 L115.155,115.943 L99.421,115.943 Z" id="Shape"></path>
        </g>
    </g>
</svg>